{
	"asset":{
		"generator":"Khronos glTF Blender I/O v4.2.70",
		"version":"2.0"
	},
	"scene":0,
	"scenes":[
		{
			"name":"Scene",
			"nodes":[
				0
			]
		}
	],
	"nodes":[
		{
			"mesh":0,
			"name":"star",
			"rotation":[
				0.5,
				0.5,
				0.5,
				0.5000000596046448
			]
		}
	],
	"materials":[
		{
			"doubleSided":true,
			"name":"Material",
			"pbrMetallicRoughness":{
				"baseColorTexture":{
					"index":0
				},
				"metallicFactor":0,
				"roughnessFactor":0.5
			}
		}
	],
	"meshes":[
		{
			"name":"star",
			"primitives":[
				{
					"attributes":{
						"POSITION":0,
						"NORMAL":1
					},
					"indices":2,
					"material":0
				}
			]
		}
	],
	"textures":[
		{
			"sampler":0,
			"source":0
		}
	],
	"images":[
		{
			"mimeType":"image/jpeg",
			"name":"red",
			"uri":"red.jpg"
		}
	],
	"accessors":[
		{
			"bufferView":0,
			"componentType":5126,
			"count":139287,
			"max":[
				0.6129639744758606,
				0.386150985956192,
				0.3892199993133545
			],
			"min":[
				-0.12357799708843231,
				-0.40931200981140137,
				-0.6666669845581055
			],
			"type":"VEC3"
		},
		{
			"bufferView":1,
			"componentType":5126,
			"count":139287,
			"type":"VEC3"
		},
		{
			"bufferView":2,
			"componentType":5125,
			"count":380700,
			"type":"SCALAR"
		}
	],
	"bufferViews":[
		{
			"buffer":0,
			"byteLength":1671444,
			"byteOffset":0,
			"target":34962
		},
		{
			"buffer":0,
			"byteLength":1671444,
			"byteOffset":1671444,
			"target":34962
		},
		{
			"buffer":0,
			"byteLength":1522800,
			"byteOffset":3342888,
			"target":34963
		}
	],
	"samplers":[
		{
			"magFilter":9729,
			"minFilter":9987
		}
	],
	"buffers":[
		{
			"byteLength":4865688,
			"uri":"seastar.bin"
		}
	]
}
